<svg xmlns="http://www.w3.org/2000/svg" xmlns:xlink="http://www.w3.org/1999/xlink" width="40" zoomAndPan="magnify" viewBox="0 0 30 30.000001" height="40" preserveAspectRatio="xMidYMid meet" version="1.0"><defs><g/><clipPath id="ae0bf0d900"><path d="M 0.484375 0 L 29.515625 0 L 29.515625 29.03125 L 0.484375 29.03125 Z M 0.484375 0 " clip-rule="nonzero"/></clipPath><clipPath id="f9177c5ed6"><path d="M 1 0 L 20 0 L 20 29.03125 L 1 29.03125 Z M 1 0 " clip-rule="nonzero"/></clipPath><clipPath id="699e71ece8"><path d="M 0.179688 3 L 18.761719 3 L 18.761719 28 L 0.179688 28 Z M 0.179688 3 " clip-rule="nonzero"/></clipPath><clipPath id="a4c9bfba90"><rect x="0" width="19" y="0" height="30"/></clipPath><clipPath id="a56fdfa3fc"><path d="M 10 7 L 23 7 L 23 29.03125 L 10 29.03125 Z M 10 7 " clip-rule="nonzero"/></clipPath><clipPath id="0ec29eb315"><rect x="0" width="13" y="0" height="23"/></clipPath><clipPath id="2b21673334"><path d="M 21 9 L 27 9 L 27 29.03125 L 21 29.03125 Z M 21 9 " clip-rule="nonzero"/></clipPath><clipPath id="797c78358c"><rect x="0" width="6" y="0" height="21"/></clipPath></defs><g clip-path="url(#ae0bf0d900)"><path fill="#ffffff" d="M 0.484375 0 L 29.515625 0 L 29.515625 29.03125 L 0.484375 29.03125 Z M 0.484375 0 " fill-opacity="1" fill-rule="nonzero"/><path fill="#1b1c20" d="M 0.484375 0 L 29.515625 0 L 29.515625 29.03125 L 0.484375 29.03125 Z M 0.484375 0 " fill-opacity="1" fill-rule="nonzero"/></g><g clip-path="url(#f9177c5ed6)"><g transform="matrix(1, 0, 0, 1, 1, 0.000000000000005692)"><g clip-path="url(#a4c9bfba90)"><g clip-path="url(#699e71ece8)"><g fill="#ffffff" fill-opacity="1"><g transform="translate(0.288523, 27.329907)"><g><path d="M 10.546875 0 L 7.796875 0 L 7.796875 -21.234375 L 0.296875 -21.234375 L 0.296875 -23.6875 L 18.046875 -23.6875 L 18.046875 -21.234375 L 10.546875 -21.234375 Z M 10.546875 0 "/></g></g></g></g></g></g></g><g clip-path="url(#a56fdfa3fc)"><g transform="matrix(1, 0, 0, 1, 10, 7)"><g clip-path="url(#0ec29eb315)"><g fill="#ffffff" fill-opacity="1"><g transform="translate(0.777439, 20.328668)"><g><path d="M 11.15625 0 L 9.390625 0 L 4.65625 -6.296875 L 3.296875 -5.09375 L 3.296875 0 L 1.78125 0 L 1.78125 -12.984375 L 3.296875 -12.984375 L 3.296875 -6.546875 L 9.1875 -12.984375 L 10.96875 -12.984375 L 5.75 -7.34375 Z M 11.15625 0 "/></g></g></g></g></g></g><g clip-path="url(#2b21673334)"><g transform="matrix(1, 0, 0, 1, 21, 9)"><g clip-path="url(#797c78358c)"><g fill="#2a8fe6" fill-opacity="1"><g transform="translate(0.385607, 18.158337)"><g><path d="M 1.234375 -0.859375 C 1.234375 -1.222656 1.3125 -1.492188 1.46875 -1.671875 C 1.632812 -1.859375 1.875 -1.953125 2.1875 -1.953125 C 2.5 -1.953125 2.742188 -1.859375 2.921875 -1.671875 C 3.097656 -1.492188 3.1875 -1.222656 3.1875 -0.859375 C 3.1875 -0.503906 3.097656 -0.234375 2.921875 -0.046875 C 2.742188 0.140625 2.5 0.234375 2.1875 0.234375 C 1.914062 0.234375 1.6875 0.148438 1.5 -0.015625 C 1.320312 -0.191406 1.234375 -0.472656 1.234375 -0.859375 Z M 1.234375 -0.859375 "/></g></g></g></g></g></g></svg>